<?xml version="1.0" encoding="UTF-8" standalone="no"?>
<!-- Created with Inkscape (http://www.inkscape.org/) -->

<svg
   version="1.1"
   id="svg1"
   width="858.23322"
   height="868.40991"
   viewBox="0 0 858.23322 868.40991"
   sodipodi:docname="org.gtk.arcris-symbolic.svg"
   inkscape:version="1.4.2 (ebf0e940d0, 2025-05-08)"
   xmlns:inkscape="http://www.inkscape.org/namespaces/inkscape"
   xmlns:sodipodi="http://sodipodi.sourceforge.net/DTD/sodipodi-0.dtd"
   xmlns:xlink="http://www.w3.org/1999/xlink"
   xmlns="http://www.w3.org/2000/svg"
   xmlns:svg="http://www.w3.org/2000/svg">
  <defs
     id="defs1">
    <linearGradient
       inkscape:collect="always"
       xlink:href="#linearGradient2230"
       id="linearGradient12"
       gradientUnits="userSpaceOnUse"
       gradientTransform="translate(30.866645,68.679071)"
       x1="996.9455"
       y1="440.69714"
       x2="984.33319"
       y2="125.82882" />
    <linearGradient
       inkscape:collect="always"
       id="linearGradient2230">
      <stop
         style="stop-color:#000000;stop-opacity:1;"
         offset="0"
         id="stop2226" />
      <stop
         style="stop-color:#000000;stop-opacity:0;"
         offset="1"
         id="stop2228" />
    </linearGradient>
    <linearGradient
       inkscape:collect="always"
       xlink:href="#linearGradient1"
       id="linearGradient2"
       x1="3180.0715"
       y1="2592.2329"
       x2="3174.3916"
       y2="2777.9177"
       gradientUnits="userSpaceOnUse"
       gradientTransform="matrix(3.9408666,0,0,3.9408666,-12775.622,-9812.7847)" />
    <linearGradient
       id="linearGradient1"
       inkscape:collect="always">
      <stop
         style="stop-color:#68696a;stop-opacity:1;"
         offset="0"
         id="stop1" />
      <stop
         style="stop-color:#68696a;stop-opacity:0;"
         offset="1"
         id="stop2" />
    </linearGradient>
    <linearGradient
       inkscape:collect="always"
       xlink:href="#linearGradient1"
       id="linearGradient7"
       gradientUnits="userSpaceOnUse"
       gradientTransform="matrix(3.9408666,0,0,3.9408666,-13564.069,-10579.826)"
       x1="3180.0715"
       y1="2592.2329"
       x2="3174.3916"
       y2="2777.9177" />
  </defs>
  <sodipodi:namedview
     id="namedview1"
     pagecolor="#505050"
     bordercolor="#ffffff"
     borderopacity="1"
     inkscape:showpageshadow="0"
     inkscape:pageopacity="0"
     inkscape:pagecheckerboard="1"
     inkscape:deskcolor="#505050"
     inkscape:zoom="0.45516833"
     inkscape:cx="774.43877"
     inkscape:cy="854.62888"
     inkscape:window-width="2560"
     inkscape:window-height="1371"
     inkscape:window-x="0"
     inkscape:window-y="0"
     inkscape:window-maximized="1"
     inkscape:current-layer="g1">
    <inkscape:page
       x="0"
       y="0"
       width="858.23322"
       height="868.40991"
       id="page2"
       margin="0"
       bleed="0" />
  </sodipodi:namedview>
  <g
     inkscape:groupmode="layer"
     inkscape:label="Image"
     id="g1">
    <g
       id="g2"
       transform="matrix(0.26541753,0,0,0.26541753,373.08432,554.44964)">
      <rect
         style="fill:#2d2d2d;fill-opacity:1;stroke-width:2.63765;stroke-linecap:round;stroke-linejoin:round;paint-order:stroke fill markers"
         id="rect10"
         width="2498.1482"
         height="2330.1675"
         x="-1038.375"
         y="-2025.3942"
         ry="225.34297"
         rx="190.43967"
         inkscape:export-filename="logoInstaladorArcris.png"
         inkscape:export-xdpi="96"
         inkscape:export-ydpi="96" />
      <g
         id="g12"
         transform="matrix(3.2928862,0,0,3.2928862,-3132.2393,-1932.9305)">
        <path
           id="path10"
           style="fill:#ffffff;stroke-width:1.08421"
           d="m 1015.1998,45.984849 c -20.59991,50.524072 -33.0681,83.593061 -55.94487,132.707661 14.0947,14.96206 31.33351,32.3091 59.41447,51.93326 -30.14097,-12.4684 -50.74078,-24.93697 -66.13654,-37.83903 -29.49044,61.36615 -75.56964,148.64561 -168.91992,316.48094 57.6749,-33.26088 104.69424,-57.69393 148.40231,-69.75388 12.21885,-3.37143 22.96067,-6.15483 32.86828,-8.41241 V 404.3082 h -37.92947 v -21.95267 h 37.92947 V 364.6207 h -37.92947 v -21.95267 h 37.92947 v -39.55831 h 21.95267 v 39.55831 h 18.9751 v -39.55831 h 21.9526 v 39.55831 h 38.3455 v 21.95267 h -38.3455 v 17.73483 h 38.3455 v 21.95267 h -38.3455 v 20.64215 c 16.5145,1.17633 34.2927,4.75379 56.874,10.81691 v -13.96918 h 21.9527 v 20.21582 c 41.4354,12.78943 86.163,36.13927 140.1966,67.3623 -14.3115,-26.23781 -26.9967,-49.98204 -39.2482,-72.53356 -19.082,-14.85364 -39.14,-34.2611 -79.9063,-55.18629 28.0811,7.26418 48.0302,15.7208 63.6427,25.04498 C 1067.5673,176.30722 1057.5924,145.62352 1015.1998,45.984849 Z m 91.3908,396.029051 c -1.6859,-0.52036 -3.376,-1.05483 -5.0514,-1.53995 1.6754,0.48512 3.3655,1.01958 5.0514,1.53995 z m -5.0514,-1.53995 c -3.6404,-1.05411 -7.1098,-2.0289 -10.4898,-2.96055 3.4146,0.94839 6.8429,1.90455 10.4898,2.96055 z m -10.4898,-2.96055 c -2.1823,-0.60613 -4.3164,-1.18363 -6.4115,-1.74614 2.1009,0.56408 4.2415,1.14798 6.4115,1.74614 z m -63.2855,-12.56305 c -1.6951,-0.12075 -3.3789,-0.2146 -5.0534,-0.28577 1.6754,0.0717 3.358,0.165 5.0534,0.28577 z m -5.0534,-0.28577 c -0.3643,-0.0156 -0.7283,-0.0291 -1.0919,-0.0424 0.3636,0.0131 0.7276,0.0269 1.0919,0.0424 z m -1.0919,-0.0424 c -1.2299,-0.0445 -2.4575,-0.0757 -3.6809,-0.0935 1.224,0.0184 2.4505,0.0486 3.6809,0.0935 z m -3.6809,-0.0935 c -0.5166,-0.008 -1.0335,-0.0161 -1.5493,-0.0191 0.5158,0.003 1.0327,0.0116 1.5493,0.0191 z m -1.5493,-0.0191 c -0.6737,-0.004 -1.3482,-0.004 -2.0211,0 0.6734,-0.004 1.3469,-0.004 2.0211,0 z m -2.0211,0 c -0.9829,0.006 -1.9655,0.0192 -2.9481,0.0424 0.9826,-0.0235 1.9653,-0.036 2.9481,-0.0424 z m -2.9481,0.0424 c -0.5804,0.0139 -1.1623,0.0344 -1.743,0.0543 0.5811,-0.0197 1.1622,-0.0406 1.743,-0.0543 z m -1.743,0.0543 c -0.7831,0.0265 -1.567,0.0587 -2.3513,0.0961 0.7844,-0.0375 1.5682,-0.0694 2.3513,-0.0961 z m -2.3513,0.0961 c -0.5032,0.0241 -1.0065,0.0449 -1.5105,0.0734 0.5041,-0.0285 1.0071,-0.0494 1.5105,-0.0734 z m -42.44137,6.39909 c 1.74297,-0.39715 3.45289,-0.77237 5.14749,-1.13688 -1.68518,0.36096 -3.40941,0.74084 -5.14749,1.13688 z m 5.14749,-1.13688 c 2.2281,-0.47725 4.43485,-0.93901 6.58151,-1.35444 -2.15327,0.41987 -4.34977,0.8744 -6.58151,1.35444 z m 6.58151,-1.35444 c 2.53109,-0.49353 5.01155,-0.94546 7.44347,-1.34979 -2.42836,0.40188 -4.92158,0.86175 -7.44347,1.34979 z m 7.44347,-1.34979 c 0.93197,-0.15423 1.85993,-0.30451 2.7802,-0.44596 -0.91958,0.14134 -1.84703,0.29082 -2.7802,0.44596 z m 2.7802,-0.44596 c 6.53449,-1.00439 12.79498,-1.68918 18.9751,-2.03864 v -20.46748 h -18.9751 z m 97.8017,-123.17543 h 21.9527 v 101.0692 h -21.9527 z m -97.80169,60.98181 v 17.73483 h 18.97509 v -17.73483 z" />
        <path
           id="path11"
           style="opacity:0.5;fill:#333333;stroke-width:1.08421"
           d="m 1015.1998,45.984849 c 39.331,134.457291 59.592,164.309371 111.525,238.863971 -35.7156,-67.88071 -83.6472,-173.23455 -111.525,-238.863971 z"
           sodipodi:nodetypes="ccc" />
        <path
           id="path12"
           style="opacity:0.8;fill:url(#linearGradient12);fill-opacity:1;stroke-width:1.08421"
           d="m 1015.1998,45.984849 c -20.59991,50.524072 -33.0681,83.593061 -55.94487,132.707661 14.0947,14.96206 31.33351,32.3091 59.41447,51.93326 -30.14097,-12.4684 -50.74078,-24.93697 -66.13654,-37.83903 -15.62233,32.50824 -36.18465,72.76525 -65.67868,127.94051 l 0.0176,0.0227 C 934.08934,292.59476 1013.2866,236.12641 1126.6964,284.84 l 0.028,0.009 C 1062.1048,160.57812 1048.5975,124.48212 1015.1998,45.984849 Z" />
      </g>
      <g
         id="g6"
         transform="matrix(3.7795276,0,0,3.7795276,-15316.765,2829.6938)">
        <rect
           style="font-variation-settings:normal;opacity:1;vector-effect:none;fill:#eff0f1;fill-opacity:1;fill-rule:evenodd;stroke-width:29.252;stroke-linecap:butt;stroke-linejoin:miter;stroke-miterlimit:4;stroke-dasharray:none;stroke-dashoffset:0;stroke-opacity:1;-inkscape-stroke:none;stop-color:#000000;stop-opacity:1"
           id="rect4"
           width="824.49976"
           height="291.41995"
           x="3696.167"
           y="-751.79242"
           rx="4.4576998"
           ry="4.4576998" />
        <rect
           style="font-variation-settings:normal;opacity:1;vector-effect:none;fill:#d5d9db;fill-opacity:1;fill-rule:evenodd;stroke-width:27.9458;stroke-linecap:butt;stroke-linejoin:miter;stroke-miterlimit:4;stroke-dasharray:none;stroke-dashoffset:0;stroke-opacity:1;-inkscape-stroke:none;stop-color:#000000;stop-opacity:1"
           id="rect5"
           width="824.49976"
           height="265.97589"
           x="3696.167"
           y="-726.34839"
           rx="4.4576998"
           ry="4.4576998" />
        <rect
           style="font-variation-settings:normal;opacity:1;vector-effect:none;fill:#95a5a6;fill-opacity:1;fill-rule:evenodd;stroke-width:7.47287;stroke-linecap:butt;stroke-linejoin:miter;stroke-miterlimit:4;stroke-dasharray:none;stroke-dashoffset:0;stroke-opacity:1;-inkscape-stroke:none;stop-color:#000000;stop-opacity:1"
           id="rect6"
           width="824.49976"
           height="19.018848"
           x="3696.167"
           y="-479.39136"
           rx="4.4576998"
           ry="4.4576998" />
      </g>
      <rect
         style="font-variation-settings:normal;opacity:0.25;vector-effect:none;fill:url(#linearGradient2);fill-opacity:1;fill-rule:evenodd;stroke-width:97.7307;stroke-linecap:butt;stroke-linejoin:miter;stroke-miterlimit:4;stroke-dasharray:none;stroke-dashoffset:0;stroke-opacity:1;-inkscape-stroke:none;stop-color:#000000"
         id="rect1"
         width="451.24438"
         height="771.21759"
         x="-449.11383"
         y="496.36197"
         rx="16.848"
         ry="16.848"
         transform="rotate(-44.211552)" />
      <rect
         style="font-variation-settings:normal;opacity:0.25;vector-effect:none;fill:url(#linearGradient7);fill-opacity:1;fill-rule:evenodd;stroke-width:97.7307;stroke-linecap:butt;stroke-linejoin:miter;stroke-miterlimit:4;stroke-dasharray:none;stroke-dashoffset:0;stroke-opacity:1;-inkscape-stroke:none;stop-color:#000000"
         id="rect7"
         width="451.24438"
         height="771.21759"
         x="-1237.5734"
         y="-270.68097"
         rx="16.848"
         ry="16.848"
         transform="rotate(-44.211552)" />
      <circle
         style="fill:#1793d1;fill-opacity:1;stroke-width:20.5537;stroke-linecap:round;stroke-linejoin:round;paint-order:stroke fill markers"
         id="path2"
         cx="-881.01617"
         cy="545.47357"
         r="237.58789" />
      <rect
         style="font-variation-settings:normal;vector-effect:none;fill:#1793d1;fill-opacity:1;fill-rule:evenodd;stroke-width:115.329;stroke-linecap:butt;stroke-linejoin:miter;stroke-miterlimit:4;stroke-dasharray:none;stroke-dashoffset:0;stroke-opacity:1;-inkscape-stroke:none;stop-color:#000000"
         id="rect2"
         width="700.03571"
         height="164.04878"
         x="-686.56244"
         y="463.44934"
         rx="16.848"
         ry="16.848" />
      <rect
         style="font-variation-settings:normal;vector-effect:none;fill:#696a6a;fill-opacity:1;fill-rule:evenodd;stroke-width:115.329;stroke-linecap:butt;stroke-linejoin:miter;stroke-miterlimit:4;stroke-dasharray:none;stroke-dashoffset:0;stroke-opacity:1;-inkscape-stroke:none;stop-color:#000000"
         id="rect3"
         width="700.03571"
         height="164.04878"
         x="433.44186"
         y="463.44934"
         rx="16.848"
         ry="16.848" />
      <circle
         style="fill:#43b3ea;fill-opacity:1;stroke-width:20.5537;stroke-linecap:round;stroke-linejoin:round;paint-order:stroke fill markers"
         id="circle2"
         cx="212.9928"
         cy="545.47357"
         r="237.58789" />
      <circle
         style="fill:#696a6a;fill-opacity:1;stroke-width:20.5537;stroke-linecap:round;stroke-linejoin:round;paint-order:stroke fill markers"
         id="circle3"
         cx="1303.6947"
         cy="545.47357"
         r="237.58789" />
    </g>
  </g>
</svg>
